# Blender 5.1.2
# www.blender.org
mtllib lowpoly_fox.mtl
o Cube
v 0.519032 0.530242 -0.817021
v 0.559000 -0.530242 -0.880212
v 0.519032 0.530242 0.817021
v 0.559000 -0.530242 0.880212
v -0.514495 0.530242 -0.817021
v -0.554463 -0.530242 -0.880212
v -0.514495 0.530242 0.817021
v -0.554463 -0.530242 0.880212
v -0.410440 -0.530242 0.000000
v 0.002269 -0.530242 -0.652506
v 0.634766 0.000000 -1.000000
v -0.630229 0.000000 1.000000
v 0.634766 0.000000 1.000000
v -0.630229 0.000000 -1.000000
v 0.002269 0.530242 1.000000
v 0.634766 0.530242 0.000000
v 0.002269 -0.530242 0.652506
v -0.630229 0.530242 0.000000
v 0.002269 0.530242 -1.000000
v 0.414977 -0.530242 0.000000
v 0.002269 0.000000 -1.000000
v 0.634766 0.000000 0.000000
v 0.002269 -0.530242 0.000000
v -0.630229 0.000000 0.000000
v 0.002269 0.648918 0.000000
v -0.495014 0.162743 1.503530
v -0.495014 0.433004 1.503530
v 0.524374 0.162743 1.503530
v 0.524374 -0.107518 1.503530
v 0.014680 0.433004 1.503530
v 0.014680 -0.107518 1.503530
v -0.495014 -0.107518 1.503530
v 0.524374 0.433004 1.503530
v -0.495014 0.162743 2.503530
v -0.495014 0.433004 2.503530
v 0.524374 0.162743 2.503530
v 0.524374 -0.107518 2.503530
v 0.014680 0.433004 2.503530
v 0.014680 -0.107518 2.503530
v -0.495014 -0.107518 2.503530
v 0.524374 0.433004 2.503530
v -0.138224 0.379005 -4.382118
v 0.014680 0.836986 1.503530
v -0.495014 0.836986 1.503530
v 0.524374 0.836986 1.503530
v 0.524374 0.836986 2.503530
v 0.014680 0.836986 2.503530
v -0.495014 0.836986 2.503530
v -0.630229 -0.530242 0.500000
v 0.634766 0.530242 0.500000
v -0.630229 0.530242 0.500000
v 0.634766 -0.530242 0.500000
v 0.634766 0.000000 0.500000
v 0.002269 -0.530242 0.500000
v -0.630229 0.000000 0.500000
v 0.002269 0.648918 0.500000
v -0.630229 0.530242 -0.500000
v 0.634766 -0.530242 -0.500000
v -0.630229 -0.530242 -0.500000
v 0.634766 0.530242 -0.500000
v 0.634766 0.000000 -0.500000
v 0.002269 -0.530242 -0.500000
v -0.630229 0.000000 -0.500000
v 0.002269 0.648918 -0.500000
v 0.318517 -0.530242 1.000000
v 0.205797 0.530242 -1.000000
v 0.318517 -0.530242 -1.000000
v 0.318517 0.530242 1.000000
v 0.318517 0.000000 -1.000000
v 0.318517 -0.530242 0.000000
v 0.318517 0.530242 0.000000
v 0.269527 -0.107518 1.503530
v 0.269527 0.433004 1.503530
v 0.269527 -0.107518 2.503530
v 0.269527 0.433004 2.503530
v 0.269527 0.162743 2.503530
v 0.269527 0.836986 1.503530
v 0.269527 0.836986 2.503530
v 0.318517 0.530242 0.500000
v 0.318517 -0.530242 0.500000
v 0.318517 0.530242 -0.500000
v 0.318517 -0.530242 -0.500000
v -0.313980 -0.530242 -1.000000
v -0.313980 0.530242 1.000000
v -0.313980 -0.530242 1.000000
v -0.201260 0.530242 -1.000000
v -0.313980 0.000000 -1.000000
v -0.313980 -0.530242 0.000000
v -0.313980 0.530242 0.000000
v -0.240167 0.433004 1.503530
v -0.240167 -0.107518 1.503530
v -0.240167 0.433004 2.503530
v -0.240167 -0.107518 2.503530
v -0.240167 0.162743 2.503530
v -0.240167 0.836986 1.503530
v -0.240167 0.836986 2.503530
v -0.313980 -0.530242 0.500000
v -0.313980 0.530242 0.500000
v -0.313980 0.530242 -0.500000
v -0.313980 -0.530242 -0.500000
v -0.630229 -1.519817 0.500000
v -0.630229 -1.519817 1.000000
v -0.313980 -1.519817 -1.000000
v -0.630229 -1.519817 -1.000000
v 0.318517 -1.519817 1.000000
v 0.634766 -1.519817 1.000000
v 0.634766 -1.519817 -0.500000
v 0.634766 -1.519817 -1.000000
v 0.634766 -1.519817 0.500000
v -0.313980 -1.519817 0.500000
v -0.630229 -1.519817 -0.500000
v -0.313980 -1.519817 -0.500000
v 0.318517 -1.519817 -1.000000
v 0.318517 -1.519817 0.500000
v 0.318517 -1.519817 -0.500000
v -0.313980 -1.519817 1.000000
v -0.725790 0.101559 2.003530
v -0.495014 -0.107518 2.003530
v 0.755151 0.494188 2.003530
v -0.725790 0.494188 2.003530
v 0.014680 -0.107518 2.003530
v 0.755151 0.101559 2.003530
v 0.524374 -0.107518 2.003530
v 0.524374 0.836986 2.003530
v 0.014680 0.836986 2.003530
v -0.495014 0.836986 2.003530
v 0.269527 1.762550 2.003530
v 0.269527 -0.107518 2.003530
v -0.240167 1.762550 2.003530
v -0.240167 -0.107518 2.003530
v 0.014680 0.433004 3.094291
v 0.014680 -0.107518 3.094291
v 0.014680 0.162743 3.094291
v 0.269527 -0.107518 3.094291
v 0.269527 0.433004 3.094291
v 0.269527 0.162743 3.094291
v -0.240167 0.433004 3.094291
v -0.240167 -0.107518 3.094291
v -0.240167 0.162743 3.094291
v 0.000000 0.379005 -4.382118
v -0.214777 0.151237 -4.382118
v 0.000000 0.151237 -4.382118
v 0.138224 0.379005 -4.382118
v 0.214777 0.151237 -4.382118
v -0.000000 -0.148471 -2.245117
v 0.780006 -0.148471 -2.245117
v 0.501988 0.678713 -2.245117
v -0.780006 -0.148471 -2.245117
v -0.501988 0.678713 -2.245117
v -0.000000 0.678713 -2.245117
v 0.318517 0.000000 -1.448562
v 0.321785 0.530242 -1.448562
v 0.000000 0.530242 -1.448562
v 0.002269 0.000000 -1.448562
v -0.500000 0.000000 -1.448562
v -0.321785 0.530242 -1.448562
v -0.000000 -0.148471 -3.564153
v -0.780006 -0.148471 -3.564153
v -0.501988 0.678713 -3.564153
v 0.780006 -0.148471 -3.564153
v 0.501988 0.678713 -3.564153
v -0.000000 0.678713 -3.564153
vn -0.0000 1.0000 -0.0000
vn 0.1453 -0.7862 0.6007
vn -0.9816 0.1311 -0.1390
vn -0.0000 -0.0000 -1.0000
vn 0.9816 0.1311 0.1390
vn 0.2723 0.2203 -0.9367
vn 0.2087 -0.1245 -0.9700
vn 0.4628 -0.2760 -0.8424
vn 0.8347 0.2805 -0.4740
vn 0.9931 -0.0806 0.0855
vn 0.9573 -0.1984 0.2104
vn 1.0000 -0.0000 -0.0000
vn -0.0000 -1.0000 -0.0000
vn -0.9931 -0.0806 -0.0855
vn -0.9573 -0.1984 -0.2104
vn -1.0000 -0.0000 -0.0000
vn -0.9786 0.1684 0.1179
vn 0.9840 0.1601 0.0781
vn -0.0000 0.9819 0.1896
vn 0.1832 0.9762 0.1159
vn 0.3513 0.9362 -0.0000
vn -0.9080 -0.0000 0.4191
vn 0.9293 0.2872 -0.2320
vn -0.8772 -0.4223 0.2283
vn -0.0000 -0.0000 1.0000
vn -0.0667 0.9839 0.1660
vn -0.9645 -0.1260 0.2321
vn 0.9748 -0.1204 0.1880
vn 0.2991 -0.8179 0.4915
vn 0.9080 -0.0000 0.4191
vn 0.8772 -0.4223 0.2283
vn -0.7999 0.4405 0.4077
vn -0.9293 0.2872 0.2320
vn -0.9816 0.1311 0.1390
vn -0.9931 -0.0806 0.0855
vn 0.9573 -0.1984 -0.2104
vn 0.2204 0.9654 -0.1394
vn -0.9573 -0.1984 0.2104
vn 0.9954 0.0433 -0.0857
vn 0.9816 0.1311 -0.1390
vn 0.9931 -0.0806 -0.0855
vn 0.7999 0.4405 0.4077
vn 0.0656 0.9844 0.1633
vn -0.4628 -0.2760 -0.8424
vn -0.0000 -0.9390 -0.3440
vn -0.3034 -0.8120 0.4986
vn -0.2204 0.9654 -0.1394
vn -0.3513 0.9362 -0.0000
vn -0.1462 -0.7829 0.6047
vn -0.2723 0.2203 -0.9367
vn -0.2087 -0.1245 -0.9700
vn -0.1832 0.9762 0.1159
vn 0.9954 0.0433 0.0857
vn -0.9954 0.0433 -0.0857
vn -0.2099 0.0671 0.9754
vn -0.9954 0.0433 0.0857
vn 0.2099 0.0671 -0.9754
vn 0.2099 0.0671 0.9754
vn -0.2099 0.0671 -0.9754
vn 0.7999 0.4405 -0.4077
vn -0.9293 0.2872 -0.2320
vn -0.7999 0.4405 -0.4077
vn 0.8772 -0.4223 -0.2283
vn 0.9080 -0.0000 -0.4191
vn -0.8772 -0.4223 -0.2283
vn 0.9293 0.2872 0.2320
vn -0.9080 -0.0000 -0.4191
vn -0.8347 0.2805 -0.4740
vn -0.0000 0.9390 -0.3440
vn -0.0000 0.9831 0.1832
vn -0.9142 0.3073 0.2641
vn -0.0000 -0.9831 0.1832
vn 0.9117 0.1845 0.3672
vn 0.9866 0.1018 0.1276
vn -0.9159 0.2513 0.3130
vn -0.9479 0.3186 -0.0000
vn 0.9479 0.3186 -0.0000
vt 0.812500 0.687500
vt 0.875000 0.687500
vt 0.875000 0.750000
vt 0.812500 0.750000
vt 0.312500 0.750000
vt 0.375000 0.750000
vt 0.312500 0.750000
vt 0.500000 0.187500
vt 0.625000 0.187500
vt 0.625000 0.250000
vt 0.500000 0.250000
vt 0.312500 0.687500
vt 0.375000 0.687500
vt 0.500000 0.687500
vt 0.625000 0.687500
vt 0.625000 0.750000
vt 0.500000 0.750000
vt 0.500000 0.437500
vt 0.625000 0.437500
vt 0.625000 0.500000
vt 0.500000 0.500000
vt 0.375000 0.437500
vt 0.375000 0.500000
vt 0.375000 0.312500
vt 0.500000 0.312500
vt 0.500000 0.375000
vt 0.375000 0.375000
vt 0.375000 0.562500
vt 0.500000 0.562500
vt 0.500000 0.625000
vt 0.375000 0.625000
vt 0.625000 0.562500
vt 0.625000 0.625000
vt 0.187500 0.687500
vt 0.250000 0.687500
vt 0.250000 0.750000
vt 0.187500 0.750000
vt 0.187500 0.562500
vt 0.250000 0.562500
vt 0.250000 0.625000
vt 0.187500 0.625000
vt 0.312500 0.562500
vt 0.312500 0.625000
vt 0.375000 0.187500
vt 0.375000 0.250000
vt 0.375000 0.062500
vt 0.500000 0.062500
vt 0.500000 0.125000
vt 0.375000 0.125000
vt 0.625000 0.062500
vt 0.625000 0.125000
vt 0.625000 0.000000
vt 0.500000 0.000000
vt 0.687500 0.750000
vt 0.750000 0.750000
vt 0.687500 0.750000
vt 0.687500 0.687500
vt 0.750000 0.687500
vt 0.687500 0.562500
vt 0.750000 0.562500
vt 0.750000 0.625000
vt 0.687500 0.625000
vt 0.812500 0.562500
vt 0.875000 0.562500
vt 0.875000 0.625000
vt 0.812500 0.625000
vt 0.375000 0.000000
vt 0.625000 0.937500
vt 0.625000 0.875000
vt 0.187500 0.750000
vt 0.500000 0.937500
vt 0.625000 1.000000
vt 0.500000 1.000000
vt 0.375000 0.937500
vt 0.375000 1.000000
vt 0.625000 0.812500
vt 0.812500 0.500000
vt 0.875000 0.500000
vt 0.687500 0.500000
vt 0.750000 0.500000
vt 0.187500 0.500000
vt 0.250000 0.500000
vt 0.312500 0.500000
vt 0.500000 0.812500
vt 0.375000 0.812500
vt 0.125000 0.625000
vt 0.125000 0.687500
vt 0.125000 0.750000
vt 0.125000 0.562500
vt 0.625000 0.312500
vt 0.125000 0.500000
vt 0.500000 0.875000
vt 0.375000 0.875000
vt 0.625000 0.375000
s 0
usemtl Material
f 98/1/1 51/2/1 7/3/1 84/4/1
f 65/5/2 4/6/2 29/6/2 72/7/2
f 63/8/3 57/9/3 5/10/3 14/11/3
f 80/12/4 52/13/4 109/13/4 114/12/4
f 53/14/5 50/15/5 3/16/5 13/17/5
f 69/18/6 66/19/6 1/20/6 11/21/6
f 67/22/7 69/18/7 11/21/7 2/23/7
f 83/24/8 87/25/8 21/26/8 10/27/8
f 161/19/9 160/18/9 144/18/9 143/19/9
f 52/13/10 53/14/10 13/17/10 4/6/10
f 58/28/11 61/29/11 22/30/11 20/31/11
f 61/29/12 60/32/12 16/33/12 22/30/12
f 97/34/13 54/35/13 17/36/13 85/37/13
f 100/38/13 62/39/13 23/40/13 88/41/13
f 82/42/13 58/28/13 20/31/13 70/43/13
f 59/44/14 63/8/14 14/11/14 6/45/14
f 49/46/15 55/47/15 24/48/15 9/49/15
f 55/47/16 51/50/16 18/51/16 24/48/16
f 7/52/17 12/53/17 26/53/17 27/52/17
f 13/17/18 3/16/18 33/16/18 28/17/18
f 68/54/19 15/55/19 30/55/19 73/56/19
f 79/57/20 56/58/20 15/55/20 68/54/20
f 81/59/21 64/60/21 25/61/21 71/62/21
f 99/63/1 57/64/1 18/65/1 89/66/1
f 120/52/22 117/53/22 34/53/22 35/52/22
f 119/16/23 33/16/23 45/16/23 124/16/23
f 117/53/24 118/67/24 40/67/24 34/53/24
f 92/68/25 38/69/25 47/69/25 96/68/25
f 84/4/26 7/3/26 27/3/26 90/4/26
f 12/53/27 8/67/27 32/67/27 26/53/27
f 4/6/28 13/17/28 28/17/28 29/6/28
f 85/37/29 17/36/29 31/36/29 91/70/29
f 94/71/25 92/68/25 35/72/25 34/73/25
f 93/74/25 94/71/25 34/73/25 40/75/25
f 39/36/13 74/7/13 134/7/13 132/36/13
f 93/70/13 39/36/13 132/36/13 138/70/13
f 130/70/13 121/36/13 39/36/13 93/70/13
f 122/17/30 119/16/30 41/16/30 36/17/30
f 128/7/13 123/6/13 37/6/13 74/7/13
f 123/6/31 122/17/31 36/17/31 37/6/31
f 129/4/32 126/3/32 48/3/32 96/4/32
f 127/56/32 125/55/32 47/55/32 78/56/32
f 120/52/33 35/52/33 48/52/33 126/52/33
f 73/56/4 30/55/4 43/55/4 77/56/4
f 90/4/4 27/3/4 44/3/4 95/4/4
f 75/76/25 41/16/25 46/16/25 78/76/25
f 71/62/21 25/61/21 56/58/21 79/57/21
f 12/53/34 7/52/34 51/50/34 55/47/34
f 8/67/35 12/53/35 55/47/35 49/46/35
f 88/41/13 23/40/13 54/35/13 97/34/13
f 20/31/36 22/30/36 53/14/36 52/13/36
f 22/30/12 16/33/12 50/15/12 53/14/12
f 70/43/13 20/31/13 52/13/13 80/12/13
f 89/66/1 18/65/1 51/2/1 98/1/1
f 86/77/1 5/78/1 57/64/1 99/63/1
f 66/79/37 19/80/37 64/60/37 81/59/37
f 9/49/38 24/48/38 63/8/38 59/44/38
f 2/23/39 58/28/39 107/28/39 108/23/39
f 83/81/13 10/82/13 62/39/13 100/38/13
f 11/21/40 1/20/40 60/32/40 61/29/40
f 2/23/41 11/21/41 61/29/41 58/28/41
f 24/48/16 18/51/16 57/9/16 63/8/16
f 10/82/13 67/83/13 82/42/13 62/39/13
f 1/20/1 66/79/1 81/59/1 60/32/1
f 23/40/13 70/43/13 80/12/13 54/35/13
f 16/33/1 71/62/1 79/57/1 50/15/1
f 38/69/25 75/76/25 78/76/25 47/69/25
f 33/16/4 73/56/4 77/56/4 45/16/4
f 124/16/42 127/56/42 78/56/42 46/16/42
f 121/36/13 128/7/13 74/7/13 39/36/13
f 36/17/25 41/16/25 75/76/25 76/84/25
f 37/6/25 36/17/25 76/84/25 74/85/25
f 60/32/1 81/59/1 71/62/1 16/33/1
f 50/15/1 79/57/1 68/54/1 3/16/1
f 3/16/43 68/54/43 73/56/43 33/16/43
f 62/39/13 82/42/13 70/43/13 23/40/13
f 10/27/44 21/26/44 69/18/44 67/22/44
f 160/18/45 157/26/45 142/26/45 144/18/45
f 54/35/13 80/12/13 65/5/13 17/36/13
f 17/36/46 65/5/46 72/7/46 31/36/46
f 65/5/16 80/12/16 114/12/16 105/5/16
f 19/80/47 86/77/47 99/63/47 64/60/47
f 25/61/48 89/66/48 98/1/48 56/58/48
f 9/86/13 88/41/13 97/34/13 49/87/13
f 30/55/4 90/4/4 95/4/4 43/55/4
f 125/55/42 129/4/42 96/4/42 47/55/42
f 118/88/13 130/70/13 93/70/13 40/88/13
f 76/84/12 75/76/12 135/76/12 136/84/12
f 94/71/16 93/74/16 138/74/16 139/71/16
f 8/88/49 85/37/49 91/70/49 32/88/49
f 15/55/19 84/4/19 90/4/19 30/55/19
f 35/72/25 92/68/25 96/68/25 48/72/25
f 64/60/48 99/63/48 89/66/48 25/61/48
f 59/89/13 100/38/13 88/41/13 9/86/13
f 100/38/25 59/89/25 111/89/25 112/38/25
f 14/11/50 5/10/50 86/90/50 87/25/50
f 6/45/51 14/11/51 87/25/51 83/24/51
f 56/58/52 98/1/52 84/4/52 15/55/52
f 114/12/13 109/13/13 106/6/13 105/5/13
f 113/83/13 108/23/13 107/28/13 115/42/13
f 104/91/13 103/81/13 112/38/13 111/89/13
f 101/87/13 110/34/13 116/37/13 102/88/13
f 52/13/53 4/6/53 106/6/53 109/13/53
f 59/44/54 6/45/54 104/45/54 111/44/54
f 85/37/55 8/88/55 102/88/55 116/37/55
f 49/87/4 97/34/4 110/34/4 101/87/4
f 97/34/12 85/37/12 116/37/12 110/34/12
f 8/67/56 49/46/56 101/46/56 102/67/56
f 67/22/57 2/23/57 108/23/57 113/22/57
f 83/81/12 100/38/12 112/38/12 103/81/12
f 58/28/25 82/42/25 115/42/25 107/28/25
f 4/6/58 65/5/58 105/5/58 106/6/58
f 6/45/59 83/24/59 103/24/59 104/45/59
f 82/42/16 67/83/16 113/83/16 115/42/16
f 32/88/13 91/70/13 130/70/13 118/88/13
f 43/55/60 95/4/60 129/4/60 125/55/60
f 31/36/13 72/7/13 128/7/13 121/36/13
f 45/16/60 77/56/60 127/56/60 124/16/60
f 27/52/61 120/52/61 126/52/61 44/52/61
f 77/56/62 43/55/62 125/55/62 127/56/62
f 95/4/62 44/3/62 126/3/62 129/4/62
f 29/6/63 28/17/63 122/17/63 123/6/63
f 72/7/13 29/6/13 123/6/13 128/7/13
f 28/17/64 33/16/64 119/16/64 122/17/64
f 91/70/13 31/36/13 121/36/13 130/70/13
f 26/53/65 32/67/65 118/67/65 117/53/65
f 41/16/66 119/16/66 124/16/66 46/16/66
f 27/52/67 26/53/67 117/53/67 120/52/67
f 134/85/25 136/84/25 133/92/25 132/93/25
f 136/84/25 135/76/25 131/69/25 133/92/25
f 132/93/25 133/92/25 139/71/25 138/74/25
f 133/92/25 131/69/25 137/68/25 139/71/25
f 92/68/16 94/71/16 139/71/16 137/68/16
f 74/85/12 76/84/12 136/84/12 134/85/12
f 38/69/1 92/68/1 137/68/1 131/69/1
f 75/76/1 38/69/1 131/69/1 135/76/1
f 141/25/4 42/90/4 140/94/4 142/26/4
f 142/26/4 140/94/4 143/19/4 144/18/4
f 157/26/45 158/25/45 141/25/45 142/26/45
f 158/25/68 159/90/68 42/90/68 141/25/68
f 162/80/69 161/79/69 143/79/69 140/80/69
f 159/77/69 162/80/69 140/80/69 42/77/69
f 156/77/70 153/80/70 150/80/70 149/77/70
f 153/80/70 152/79/70 147/79/70 150/80/70
f 155/25/71 156/90/71 149/90/71 148/25/71
f 154/26/72 155/25/72 148/25/72 145/26/72
f 151/18/72 154/26/72 145/26/72 146/18/72
f 152/19/73 151/18/73 146/18/73 147/19/73
f 66/19/74 69/18/74 151/18/74 152/19/74
f 69/18/13 21/26/13 154/26/13 151/18/13
f 21/26/13 87/25/13 155/25/13 154/26/13
f 87/25/75 86/90/75 156/90/75 155/25/75
f 19/80/1 66/79/1 152/79/1 153/80/1
f 86/77/1 19/80/1 153/80/1 156/77/1
f 149/77/1 150/80/1 162/80/1 159/77/1
f 150/80/1 147/79/1 161/79/1 162/80/1
f 148/25/76 149/90/76 159/90/76 158/25/76
f 145/26/13 148/25/13 158/25/13 157/26/13
f 146/18/13 145/26/13 157/26/13 160/18/13
f 147/19/77 146/18/77 160/18/77 161/19/77
